# xmcd
#
# Track frame offsets: 
#        150
#        7860
#        19462
#        30517
#        40400
#        50850
#        58815
#        67660
#        78407
#        86422
#        99330
#        107545
#        117117
#        129827
#        140205
#        152012
#        160970
#        176150
#        184240
#        195212
#        207460
#        218540
#        227445
#        238380
#
# Disc length: 3342 seconds
#
# Revision: 1
# Processed by: cddbd v1.5.2PL0 Copyright (c) Steve Scherf et al.
# Submitted via: ExactAudioCopyFreeDBPlugin 1.0
#
DISCID=400d0c18
DTITLE=Nancy Wilson - Like In Love and Something  Wonderful (1960) [2003
DTITLE=]
DYEAR=1959
DGENRE=Vocal
TTITLE0=On The Street Where You Live
TTITLE1=Night Mist
TTITLE2=You Leave Me Breathless
TTITLE3=The More I See You
TTITLE4=I Want To Be Loved
TTITLE5=Almost Like Being In Love
TTITLE6=People Will Say We're In Love
TTITLE7=Passion Flower
TTITLE8=Sometimes I'm Happy
TTITLE9=In Other Words
TTITLE10=All Of You
TTITLE11=If It's The Last Thing I Do
TTITLE12=Teach Me  Tonight
TTITLE13=This Time The Dream's On Me
TTITLE14=I'm Gonna Laugh You Right Out Of My Life
TTITLE15=I Wish You Love
TTITLE16=Guess Who I Saw Today
TTITLE17=I'm Gonna Laugh You Right Out Of My Life
TTITLE18=What A Little Moonlight Can Do
TTITLE19=The Great City
TTITLE20=He's My Guy
TTITLE21=Something Happens To Me
TTITLE22=Call It Stormy Monday
TTITLE23=Something Wonderful Happens
EXTD=YEAR: 2003
EXTT0=
EXTT1=
EXTT2=
EXTT3=
EXTT4=
EXTT5=
EXTT6=
EXTT7=
EXTT8=
EXTT9=
EXTT10=
EXTT11=
EXTT12=
EXTT13=
EXTT14=
EXTT15=
EXTT16=
EXTT17=
EXTT18=
EXTT19=
EXTT20=
EXTT21=
EXTT22=
EXTT23=
PLAYORDER=
